<?xml version="1.0" encoding="UTF-8" standalone="no"?>
<!-- Created with Inkscape (http://www.inkscape.org/) -->
<svg xmlns:svg="http://www.w3.org/2000/svg" xmlns="http://www.w3.org/2000/svg" version="1.0" width="602.36218" height="133.44095" id="svg1926">
  <defs id="defs1928"/>
  <g id="layer1">
    <path d="M 305.02753,80.029134 C 295.48753,85.406104 269.72308,92.014374 269.62599,73.837914 C 269.62599,65.588744 275.20139,58.155594 283.3967,58.155594 C 292.2245,58.154174 294.32709,64.726304 294.51702,65.910124 L 307.50607,65.910124 C 308.27001,61.059694 304.43013,46.232724 283.89595,46.232724 C 268.87729,46.232724 256.863,58.233194 256.863,74.259574 C 258.93938,97.840634 281.30509,102.98232 302.43383,92.216694 L 305.02753,80.029134 z M 191.66438,82.607244 C 191.66438,81.863154 191.85572,80.430944 192.52505,77.393624 C 193.17525,74.370474 202.34532,32.158354 202.34532,32.158354 L 190.17832,32.158354 L 180.06997,78.748234 C 179.63025,80.694214 179.4584,82.626734 179.4584,84.327874 C 179.4584,94.544294 187.36564,97.566384 193.68938,97.566384 C 195.94363,97.566384 198.04658,97.179454 198.57879,97.125244 C 198.77013,96.094134 200.68174,87.326224 200.78025,86.944964 C 200.51131,86.964454 199.1567,87.057284 197.6058,87.057284 C 193.07816,87.057284 191.66438,85.130434 191.66438,82.607244 z M 364.6054,46.389334 L 347.61985,46.389334 L 325.80477,66.023864 L 333.16138,32.040364 L 320.89481,32.040364 L 306.96713,96.533504 L 319.21316,96.533504 L 322.61792,80.851184 L 330.14355,74.849884 C 337.2702,89.158824 338.5954,97.000514 355.20111,96.210354 L 357.38733,86.001024 C 354.49138,86.544214 351.97812,86.498504 350.11505,85.244174 C 345.54064,82.161144 343.13686,75.028824 339.42453,67.494694 L 364.6054,46.389334 z M 124.73131,76.591064 C 125.74328,71.965284 134.39355,32.059844 134.39355,32.059844 C 134.39497,32.059844 149.27474,32.059844 157.58946,32.059844 C 174.43611,32.059844 178.563,41.420914 178.563,47.112874 C 178.563,59.665394 166.69966,62.986544 165.2469,63.446814 C 166.60257,63.886184 174.3043,66.942994 174.3043,76.796224 C 174.3043,87.554764 164.40536,96.534924 149.06533,96.534924 C 149.06533,96.533504 143.56328,96.534924 142.0758,96.534924 C 129.20048,96.533504 122.26517,87.687994 124.72989,76.591064 M 161.0658,75.803744 C 161.0658,72.766424 159.09466,68.927954 150.44332,68.927954 L 139.19119,68.927954 L 135.82682,84.518864 L 148.57174,84.518864 C 156.80178,84.518864 161.0658,80.812204 161.0658,75.803744 M 165.22741,49.827054 C 165.22741,46.692994 162.84029,43.997954 156.99737,43.997954 L 144.57525,43.996544 L 141.76824,57.010754 L 154.70308,57.010754 C 161.67737,57.010754 165.22741,53.646024 165.22741,49.827054 z M 364.33256,76.591064 C 365.34453,71.965284 373.98099,32.059844 373.98099,32.059844 C 373.98099,32.059844 388.8813,32.059844 397.20843,32.059844 C 414.03737,32.059844 418.18374,41.420914 418.18374,47.112874 C 418.18516,59.665394 406.3204,62.986544 404.86764,63.446814 C 406.18859,63.886184 413.92504,66.942994 413.92504,76.796224 C 413.92504,87.554764 404.00662,96.534924 388.67083,96.534924 C 388.67083,96.533504 383.16878,96.534924 381.67705,96.534924 C 368.80174,96.533504 361.86642,87.687994 364.33115,76.591064 M 400.66705,75.803744 C 400.66705,72.766424 398.69591,68.927954 390.04457,68.927954 L 378.79386,68.927954 L 375.43375,84.518864 L 388.17158,84.518864 C 396.40871,84.518864 400.66705,80.812204 400.66705,75.803744 M 404.83008,49.827054 C 404.83008,46.692994 402.46103,43.997954 396.59863,43.997954 L 384.18217,43.996544 L 381.37091,57.010754 L 394.32382,57.010754 C 401.27863,57.010754 404.82867,53.646024 404.83008,49.827054 z M 502.38689,46.427954 C 489.37835,46.427954 480.55516,54.106304 477.57205,68.546694 C 476.27733,74.737914 471.57642,96.554414 471.57642,96.554414 L 483.74485,96.552994 C 483.74485,96.552994 488.23351,75.803744 489.64729,69.289724 C 491.52028,60.752134 496.02807,57.846614 502.10272,57.846614 C 504.04906,57.846614 505.31047,58.076584 505.94118,58.175084 C 506.28347,56.453394 507.98567,48.736064 508.38642,46.843944 C 507.07221,46.672094 504.98733,46.427954 502.38689,46.427954 z M 543.78335,115.72866 L 584.64654,46.427954 L 571.4828,46.427954 L 552.72453,79.036304 L 548.35102,46.389334 C 548.35102,46.389334 541.64567,46.389334 534.2724,46.389334 C 518.16843,46.389334 509.8204,53.744534 506.86103,67.838394 C 505.37071,74.869374 500.65067,96.554414 500.65067,96.554414 L 512.83823,96.552994 C 512.83823,96.552994 517.28827,75.960354 519.06807,67.666544 C 521.0587,59.329844 528.73705,55.932174 537.58256,57.645354 C 539.48992,68.877994 543.50059,93.820754 543.50059,93.820754 L 530.75532,115.72866 L 543.78335,115.72866 z M 223.15304,62.110634 C 223.44111,61.612804 226.57127,56.780434 234.38568,56.780434 C 239.23753,56.780434 241.72174,58.556344 241.72174,60.697914 C 241.72174,63.714694 236.83091,64.516894 228.37056,65.720204 C 213.81253,67.823154 204.60383,72.327054 204.60383,82.855284 C 205.18918,104.43153 244.73568,100.65224 249.20875,83.506894 C 249.99182,79.990164 252.21099,69.867994 253.35619,64.286934 C 255.4921,53.743474 249.70765,46.290834 234.86544,46.290834 C 215.79784,46.290834 210.29544,60.008744 209.40147,62.112054 L 223.15304,62.110634 L 223.15304,62.110634 z M 227.70123,75.173034 C 230.37536,74.772284 238.22556,73.549844 239.29564,73.418034 C 239.10572,74.238664 238.77725,75.575204 238.55261,76.571574 C 237.13989,82.644804 230.9671,86.543154 224.14552,86.543154 C 219.81206,86.543154 217.26973,84.191814 217.26973,81.423434 C 217.26973,79.109654 219.37269,76.395834 227.70123,75.173034 M 47.70832,24.704294 C 47.70832,21.628354 45.815839,17.712284 37.849422,17.712284 C 34.583202,17.712284 25.603399,17.712284 25.603399,17.712284 L 22.126706,33.816264 C 22.126706,33.816264 28.758359,33.816264 34.891115,33.816264 C 44.862335,33.816264 47.70832,29.101544 47.70832,24.704294 z M 80.698989,24.704294 C 80.698989,21.628354 78.805449,17.712284 70.858159,17.712284 C 67.592299,17.712284 58.613559,17.712284 58.613559,17.712284 L 55.136859,33.816264 C 55.136859,33.816264 61.747969,33.816264 67.900209,33.816264 C 77.872489,33.816264 80.697569,29.101544 80.698989,24.704294 z M 43.297257,48.946894 C 43.297257,45.870954 41.405131,41.939294 33.438359,41.939294 C 30.172493,41.939294 21.192336,41.939294 21.192336,41.939294 L 17.715643,58.057094 C 17.715643,58.057094 24.328163,58.057094 30.474383,58.057094 C 40.445603,58.057094 43.297257,53.323234 43.297257,48.946894 z M 76.288279,48.946894 C 76.288279,45.870954 74.394379,41.939294 66.447449,41.939294 C 63.161749,41.939294 54.183359,41.939294 54.183359,41.939294 L 50.706666,58.057094 C 50.706666,58.057094 57.317409,58.057094 63.469659,58.057094 C 73.440879,58.057094 76.286859,53.323234 76.288279,48.946894 z M 110.80399,39.126974 C 110.80399,36.035434 108.89521,32.119374 100.94934,32.119374 C 97.683119,32.117954 88.703319,32.119374 88.703319,32.119374 L 85.226629,48.221934 C 85.226629,48.221934 91.833479,48.223354 97.985369,48.223354 C 107.95659,48.221934 110.80257,43.503314 110.80399,39.126974 z M 106.05064,64.365954 C 106.05064,61.270514 104.1571,57.372524 96.190329,57.372524 C 92.943599,57.372524 83.945719,57.372524 83.945719,57.372524 L 80.469029,73.476144 C 80.469029,73.476144 87.080129,73.476144 93.226349,73.476144 C 103.20324,73.476144 106.04922,68.738034 106.05064,64.365954 z M 71.548749,74.200044 C 71.548749,71.089024 69.656269,67.172954 61.708989,67.172954 C 58.423639,67.172954 49.443831,67.172954 49.443831,67.172954 L 45.967139,83.296424 C 45.967139,83.296424 52.598789,83.296424 58.731549,83.296424 C 68.702769,83.296424 71.548749,78.577444 71.548749,74.200044 z M 445.41248,57.372524 C 453.61063,57.372524 456.73937,62.355834 456.39709,66.370394 C 451.6976,66.370394 437.69551,66.370394 432.95705,66.370394 C 433.57004,63.828074 437.4861,57.372524 445.41248,57.372524 z M 464.38866,92.216694 L 466.76764,81.157684 C 460.06158,85.179684 432.71043,93.292794 431.12339,76.322134 C 436.2052,76.322134 465.60437,76.322134 468.26043,76.322134 C 468.47091,75.402994 469.31138,72.102764 469.31138,68.718904 C 469.31138,56.971774 461.34602,46.232724 445.28102,46.232724 C 430.59118,46.232724 418.8189,58.575474 418.8189,73.246184 C 419.93079,101.11004 447.77728,101.13307 464.38866,92.216694 z " style="fill:#0033bf;fill-rule:evenodd" id="path2009"/>
  </g>
</svg>