<?xml version="1.0" encoding="UTF-8" standalone="no"?>
<!-- Created with Inkscape (http://www.inkscape.org/) -->
<svg xmlns:dc="http://purl.org/dc/elements/1.1/" xmlns:cc="http://creativecommons.org/ns#" xmlns:rdf="http://www.w3.org/1999/02/22-rdf-syntax-ns#" xmlns:svg="http://www.w3.org/2000/svg" xmlns="http://www.w3.org/2000/svg" xmlns:sodipodi="http://sodipodi.sourceforge.net/DTD/sodipodi-0.dtd" xmlns:inkscape="http://www.inkscape.org/namespaces/inkscape" width="718.53381" height="388.21094" id="svg2" version="1.1" inkscape:version="0.48.0 r9654" sodipodi:docname="HP_webOS_Logo.svg">
  <defs id="defs4"/>
  <sodipodi:namedview id="base" pagecolor="#ffffff" bordercolor="#666666" borderopacity="1.0" inkscape:pageopacity="0.0" inkscape:pageshadow="2" inkscape:zoom="0.98994949" inkscape:cx="246.29205" inkscape:cy="62.010462" inkscape:document-units="px" inkscape:current-layer="layer1" showgrid="false" fit-margin-top="25" fit-margin-left="25" fit-margin-right="25" fit-margin-bottom="25" inkscape:window-width="1757" inkscape:window-height="1018" inkscape:window-x="-8" inkscape:window-y="-8" inkscape:window-maximized="1" inkscape:snap-page="false"/>
  <metadata id="metadata7">
    <rdf:RDF>
      <cc:Work rdf:about="">
        <dc:format>image/svg+xml</dc:format>
        <dc:type rdf:resource="http://purl.org/dc/dcmitype/StillImage"/>
      </cc:Work>
    </rdf:RDF>
  </metadata>
  <g inkscape:label="Ebene 1" inkscape:groupmode="layer" id="layer1" transform="translate(-6.121145,-179.86097)">
    <path style="fill:#808080" d="m 163.1174,403.49768 c 0.0112,-0.6875 4.62373,-14.075 10.25,-29.75 l 10.22958,-28.5 13.5,-0.5 c 14.03769,-0.51991 16.82626,-1.27901 19.45898,-5.29704 1.48788,-2.2708 19.55495,-52.32725 21.51812,-59.6179 1.43803,-5.34044 -0.57116,-10.30666 -5.12183,-12.65991 -2.7572,-1.4258 -6.51649,-1.72562 -22.77464,-1.81641 l -19.47235,-0.10874 -24.09078,67.5 c -23.71495,66.44694 -24.13134,67.49731 -26.69031,67.32732 -8.58733,-0.57043 -28.65357,-11.69052 -39.8311,-22.07316 -31.902633,-29.63385 -41.170513,-74.88503 -23.514083,-114.80936 8.25835,-18.6736 27.039363,-38.09813 46.210843,-47.79424 4.9662,-2.5117 19.13525,-7.65056 21.09437,-7.65056 0.51402,0 -9.80017,30.0375 -22.92043,66.75 -13.12027,36.7125 -23.857683,66.87772 -23.860913,67.03383 -0.003,0.15611 4.793573,0.15611 10.659533,0 l 10.6654,-0.28383 11.49829,-32.25 11.49828,-32.25 5.33631,0 c 2.93497,0 5.33501,0.3375 5.33341,0.75 -0.003,0.66261 -19.13468,54.44277 -21.87843,61.5 l -1.06916,2.75 10.72524,-0.009 10.72525,-0.009 10.75,-30.31934 c 12.28898,-34.65989 12.68363,-36.92914 7.35,-42.26277 -3.39444,-3.39444 -3.41569,-3.4 -13,-3.4 -5.28,0 -9.61179,-0.3375 -9.62621,-0.75 -0.0144,-0.4125 4.59809,-13.89871 10.25,-29.96935 11.73097,-33.35582 9.9667,-31.08904 22.7964,-29.28943 44.05546,6.17961 77.43472,37.40903 86.05104,80.50878 0.65972,3.3 1.17433,12.075 1.14358,19.5 -0.0456,11.0132 -0.51433,15.27187 -2.5445,23.11888 -10.54377,40.75378 -43.30305,69.34657 -85.76655,74.85836 -10.37152,1.34623 -14.90791,1.27696 -14.88334,-0.22724 z m 24.97958,-70.50657 c 0,-0.41611 4.40956,-13.12861 9.79902,-28.25 l 9.79901,-27.49343 5.57575,-0.29617 5.57574,-0.29616 -10.11516,28.54616 -10.11515,28.54617 -5.25961,0 c -2.89278,0 -5.2596,-0.34046 -5.2596,-0.75657 z" id="path3010" inkscape:connector-curvature="0"/>
    <path inkscape:connector-curvature="0" id="path3068" d="m 68.515887,542.35127 c -1.34099,-1.6486 -36.573801,-89.66991 -36.589029,-91.40959 -0.0051,-0.56538 -0.255522,-1.41777 -0.556819,-1.89421 -0.92861,-1.46839 0.488923,-1.76059 8.586883,-1.77002 l 7.727174,-0.009 2.178903,5.43751 c 6.775218,16.9077 18.617148,47.89791 20.005558,52.35437 0.88768,2.84922 1.79243,4.96547 2.01056,4.70274 0.21815,-0.26273 1.27131,-2.85846 2.34037,-5.76828 1.06906,-2.90972 3.87207,-9.52295 6.22891,-14.69592 19.22665,-42.19999 20.010083,-43.79394 21.524733,-43.79394 0.26959,0 1.51963,2.05009 2.77787,4.55575 5.16571,10.28704 23.56902,50.18594 25.3582,54.97731 1.05936,2.83694 2.03495,5.04923 2.16797,4.91624 0.13303,-0.13309 1.57458,-4.17363 3.20344,-8.97901 2.79426,-8.24361 18.45988,-48.77523 20.07624,-51.94325 0.7356,-1.44175 0.89705,-1.47271 8.51712,-1.63363 7.52615,-0.15892 7.76733,-0.12607 7.76733,1.05797 0,1.03639 -31.91278,80.77395 -36.26941,90.62306 -1.42449,3.2204 -2.61788,4.3838 -3.7678,3.6731 -0.82928,-0.5126 -2.82563,-4.6553 -12.72837,-26.41303 -12.36771,-27.17377 -13.81114,-30.45596 -15.69967,-35.6998 -1.69123,-4.69594 -2.24729,-5.14476 -2.93425,-2.36833 -0.571033,2.30793 -5.503023,13.90936 -9.436073,22.19652 -1.84132,3.87963 -5.96327,12.67652 -9.15988,19.54851 -10.73759,23.08343 -11.577,24.48993 -13.32996,22.33483 z m 153.879483,-1.0628 c -9.55217,-2.4807 -19.31164,-8.50861 -25.4298,-15.70658 -3.54657,-4.17261 -7.68538,-12.43338 -9.34288,-18.64793 -1.70191,-6.38095 -1.84031,-18.06401 -0.289,-24.39521 1.50199,-6.12989 6.12394,-15.40876 10.00453,-20.08468 13.01513,-15.68259 34.66712,-21.44089 54.09895,-14.38751 13.73192,4.98442 23.93742,16.91374 27.98239,32.70891 1.44773,5.65327 2.39142,15.49833 1.67628,17.48789 l -0.4754,1.32268 -38.77717,0 c -21.37254,0 -38.91912,0.22964 -39.09344,0.51176 -0.53188,0.86057 1.34641,7.18386 3.47393,11.69504 2.83874,6.01923 7.00168,10.23387 12.91949,13.07995 6.33961,3.049 13.08488,4.37027 19.99411,3.91638 8.80516,-0.57835 15.74833,-3.18768 22.9136,-8.61101 2.14867,-1.62632 4.0977,-2.95703 4.33115,-2.95703 0.87214,0 8.91869,8.58979 8.91869,9.52082 0,0.53317 -1.38877,2.14782 -3.08616,3.58807 -6.39466,5.42586 -13.19237,8.91655 -21.50364,11.04225 -6.27583,1.605 -21.99164,1.5585 -28.31563,-0.084 z m 41.49599,-55.44387 c 0.48068,-1.25264 -1.41297,-7.82414 -3.37413,-11.70915 -8.07122,-15.98901 -33.05854,-19.53432 -47.2568,-6.70501 -3.40492,3.07663 -6.32168,7.68456 -8.28104,13.08261 -2.48817,6.85473 -5.81506,6.14055 28.60335,6.14055 24.92301,0 30.05071,-0.13685 30.30862,-0.809 z m 83.41959,55.56677 c -7.69645,-2.2995 -13.56537,-6.17405 -19.33743,-12.76595 -3.02849,-3.45874 -3.97389,-4.22733 -4.26534,-3.46777 -0.20595,0.53662 -0.19883,3.86755 0.0158,7.40181 0.54626,8.99331 0.7685,8.74311 -7.76547,8.74311 -4.59518,0 -7.15252,-0.2368 -7.62122,-0.7055 -1.02471,-1.0247 -1.02471,-151.57799 0,-152.6027 0.46757,-0.46756 3.00451,-0.70541 7.52433,-0.70541 4.51983,0 7.05676,0.23785 7.52433,0.70541 0.53379,0.5338 0.7054,9.75812 0.7054,37.91556 0,20.46558 0.11397,37.21014 0.25327,37.21014 0.13928,0 2.8546,-2.62876 6.03402,-5.84169 4.71622,-4.76593 6.59103,-6.2239 10.18085,-7.91724 8.06334,-3.80352 16.28077,-5.11213 24.37158,-3.88113 14.95411,2.27523 26.48317,10.58413 33.50447,24.14637 4.56879,8.82503 6.47242,18.98998 5.52083,29.47989 -0.66444,7.32446 -1.90595,11.65767 -5.35275,18.68276 -2.67319,5.44829 -3.68703,6.82742 -8.64363,11.75818 -6.1252,6.09314 -9.97549,8.65666 -16.58747,11.04386 -3.86116,1.3941 -5.26336,1.5722 -13.42305,1.7054 -7.37302,0.1203 -9.78445,-0.053 -12.63852,-0.9051 z m 17.02676,-14.51024 c 9.77052,-2.54487 16.6811,-9.35179 20.54331,-20.23508 1.63807,-4.61595 1.78178,-5.64128 1.77489,-12.66444 -0.007,-6.80681 -0.18398,-8.14838 -1.62229,-12.27582 -4.04957,-11.62094 -11.32947,-18.27814 -22.59954,-20.66651 -7.40792,-1.56991 -14.97084,-0.62063 -21.80886,2.73739 -12.02781,5.90664 -19.09247,22.07798 -16.33182,37.38423 2.31325,12.82585 10.90353,22.49214 22.84461,25.70632 4.17795,1.12452 12.90861,1.13163 17.1997,0.0142 z m 122.20031,14.41094 c -37.5662,-8.08705 -61.56333,-38.3885 -61.4426,-77.58415 0.0414,-13.42802 2.46663,-24.20121 8.01306,-35.59464 9.16067,-18.81778 25.12159,-32.42296 45.70775,-38.96156 8.43609,-2.67949 13.19579,-3.31516 24.56577,-3.28088 11.16176,0.0337 18.03294,1.09533 27.04047,4.17807 25.78926,8.82601 45.12925,31.82459 49.58358,58.96305 2.106,12.83187 1.76439,23.74416 -1.12158,35.82354 -6.5182,27.2823 -27.43985,48.32891 -55.36972,55.70067 -5.15532,1.3607 -7.02945,1.5327 -18.66317,1.7134 -11.16257,0.1733 -13.66892,0.043 -18.31356,-0.9575 z m 29.64404,-9.16873 c 20.40015,-3.59609 37.62196,-16.4927 47.00887,-35.20256 2.77805,-5.53723 5.59225,-14.09747 6.66712,-20.28046 1.08656,-6.24982 0.94971,-19.71776 -0.26405,-25.98817 -2.81845,-14.56028 -9.50568,-27.35549 -19.3145,-36.95608 -9.14205,-8.94784 -21.76405,-15.28551 -35.14074,-17.64456 -6.23324,-1.09926 -19.12092,-0.96074 -25.46048,0.27365 -23.55289,4.58606 -42.68691,21.42886 -50.3591,44.32884 -2.47336,7.38248 -3.5386,14.41097 -3.5386,23.34783 0,12.6523 2.34015,22.65908 7.87719,33.68399 13.11487,26.1132 41.98352,39.82125 72.52429,34.43752 z m 110.05806,9.13903 c -10.69162,-2.7918 -18.00421,-6.83547 -24.83376,-13.73264 -4.48286,-4.52712 -10.44281,-12.96331 -10.43905,-14.77623 0,-0.90158 0.89387,-1.64053 3.46259,-2.8683 1.90297,-0.9095 3.7502,-1.47446 4.1048,-1.25528 0.35461,0.21918 1.86256,2.28092 3.35093,4.58184 5.08272,7.85703 12.81234,14.59268 19.95752,17.39114 20.46573,8.01547 44.89748,1.62683 52.30773,-13.6778 4.40874,-9.1054 4.12967,-20.79383 -0.71368,-29.89446 -3.32473,-6.24715 -12.1204,-13.35172 -23.31068,-18.82889 -2.95328,-1.44546 -10.79233,-5.2811 -17.42017,-8.52363 -17.78372,-8.70031 -24.96311,-14.63908 -29.23896,-24.18644 -6.51242,-14.54138 -2.19971,-33.19226 9.6939,-41.92298 6.85037,-5.02861 13.56135,-7.30541 23.07211,-7.82753 12.13756,-0.66634 23.53474,3.18079 31.63155,10.67723 4.4322,4.1035 8.92927,9.60963 8.92927,10.93285 0,0.8568 -5.36231,5.21475 -6.41668,5.21475 -0.31278,0 -1.7578,-1.54533 -3.21114,-3.43407 -7.63033,-9.91611 -15.04941,-13.90759 -27.11214,-14.5862 -13.05529,-0.73445 -23.40236,4.58717 -27.66654,14.22921 -3.98054,9.00069 -2.58152,21.00581 3.31752,28.46865 4.31535,5.45935 8.47172,7.88723 37.57546,21.94946 9.83217,4.75067 16.06723,8.88079 21.45868,14.21421 4.94507,4.89177 7.85469,9.49046 10.04597,15.87729 2.09849,6.11639 2.64527,17.12618 1.16452,23.44875 -3.29631,14.07524 -14.08143,24.39497 -29.61265,28.33487 -4.83462,1.2264 -6.86956,1.4059 -15.6235,1.3777 -8.02321,-0.025 -10.95913,-0.2659 -14.4736,-1.1835 z m 73.07405,-187.77409 c -0.0101,-1.93987 0.10375,-2.80432 0.23786,-1.92101 0.13411,0.88333 0.13685,2.47049 0.0102,3.52703 -0.13065,1.05656 -0.24039,0.33384 -0.24374,-1.60602 z" style="fill:#808080"/>
  </g>
</svg>