<?xml version="1.0" encoding="UTF-8" standalone="no"?>
<svg xmlns:dc="http://purl.org/dc/elements/1.1/" xmlns:cc="http://web.resource.org/cc/" xmlns:rdf="http://www.w3.org/1999/02/22-rdf-syntax-ns#" xmlns:svg="http://www.w3.org/2000/svg" xmlns="http://www.w3.org/2000/svg" xmlns:sodipodi="http://inkscape.sourceforge.net/DTD/sodipodi-0.dtd" xmlns:inkscape="http://www.inkscape.org/namespaces/inkscape" version="1.1" id="Layer_1" width="12" height="12" viewBox="0 0 12.5 12.5" overflow="visible" xml:space="preserve" sodipodi:version="0.32" inkscape:version="0.43" sodipodi:docname="AB-Rast.svg" sodipodi:docbase="D:\Daten\Eigene Bilder\SVG\Symbole"><metadata id="metadata17"><rdf:RDF><cc:Work rdf:about=""><dc:format>image/svg+xml</dc:format><dc:type rdf:resource="http://purl.org/dc/dcmitype/StillImage"/></cc:Work></rdf:RDF></metadata><defs id="defs15"/><sodipodi:namedview inkscape:window-height="998" inkscape:window-width="1280" inkscape:pageshadow="2" inkscape:pageopacity="0.0" borderopacity="1.0" bordercolor="#666666" pagecolor="#ffffff" id="base" inkscape:zoom="62.696247" inkscape:cx="6.3551069" inkscape:cy="5.9275462" inkscape:window-x="1276" inkscape:window-y="-4" inkscape:current-layer="Layer_1"/><g id="g4"><path d="M 9.086,2.569 C 9.2442556,2.7432444 11.1865,0.5 11.373,0.689 C 11.5595,0.878 9.3571313,2.8380746 9.524,3.008 C 9.7005,3.1877331 11.6325,0.92999999 11.811,1.128 C 11.9895,1.326 9.7469239,3.2063402 9.932,3.414 C 10.121489,3.6266109 12.036922,1.3106474 12.188,1.503 C 12.339078,1.6953526 10.684,4.22 9.964,4.448 C 9.598,4.563 8.9436253,4.4063903 8.60319,4.6236109 C 8.1667331,4.9020996 7.7883665,5.5690226 7.175,6.045 C 6.8451448,5.7120226 6.6897331,5.5791222 6.423,5.264 C 6.9909096,4.7209682 7.695,4.13 7.832,3.854 C 8.045,3.424 8.0485867,2.8952399 8.1943439,2.4316109 C 8.3594435,1.9064569 10.812401,0.083944835 10.935,0.25 C 11.057599,0.41605516 8.9216308,2.3880244 9.086,2.569 z " id="path6" sodipodi:nodetypes="czzzzzssccsszz"/><path d="M 0.876,2.663 C 0.53365597,2.1947976 -0.22454821,0.28045716 0.626,0.25 C 1.0863702,0.23351467 2.5202502,1.9056242 12.25,11.153 C 12.25,11.268 12.25,11.382 12.25,11.498 C 12.105,11.854 11.854,12.106 11.498,12.25 C 11.383,12.25 11.269,12.25 11.153,12.25 C 5.6638104,6.7637264 5.2374912,5.3226406 4.198,6.046 C 2.6891199,4.7306164 1.3418714,3.300143 0.876,2.663 z " id="path8" sodipodi:nodetypes="cscccccs"/><path d="M5.294,6.392c0.279,0.273,0.588,0.52,0.814,0.845c-1.595,1.665-3.183,3.335-4.762,5.013c-0.115,0-0.229,0-0.345,0    c-0.355-0.136-0.597-0.385-0.752-0.721c0-0.136,0-0.271,0-0.406C1.961,9.575,3.569,7.924,5.294,6.392z" id="path10"/></g></svg>