<?xml version="1.0" encoding="UTF-8" standalone="no"?>
<svg
   xmlns:dc="http://purl.org/dc/elements/1.1/"
   xmlns:cc="http://creativecommons.org/ns#"
   xmlns:rdf="http://www.w3.org/1999/02/22-rdf-syntax-ns#"
   xmlns:svg="http://www.w3.org/2000/svg"
   xmlns="http://www.w3.org/2000/svg"
   xmlns:xlink="http://www.w3.org/1999/xlink"
   xmlns:sodipodi="http://sodipodi.sourceforge.net/DTD/sodipodi-0.dtd"
   xmlns:inkscape="http://www.inkscape.org/namespaces/inkscape"
   width="551.25549"
   height="118.47797"
   id="svg2"
   version="1.0"
   webdriver="true"
   inkscape:version="0.48.3.1 r9886"
   sodipodi:docname="Android.svg">
  <metadata
     id="metadata23">
    <rdf:RDF>
      <cc:Work
         rdf:about="">
        <dc:format>image/svg+xml</dc:format>
        <dc:type
           rdf:resource="http://purl.org/dc/dcmitype/StillImage" />
      </cc:Work>
    </rdf:RDF>
  </metadata>
  <defs
     id="defs21" />
  <sodipodi:namedview
     pagecolor="#ffffff"
     bordercolor="#666666"
     borderopacity="1"
     objecttolerance="10"
     gridtolerance="10"
     guidetolerance="10"
     inkscape:pageopacity="0"
     inkscape:pageshadow="2"
     inkscape:window-width="961"
     inkscape:window-height="543"
     id="namedview19"
     showgrid="false"
     fit-margin-top="1"
     fit-margin-left="2"
     fit-margin-right="2"
     fit-margin-bottom="1"
     inkscape:zoom="0.73707865"
     inkscape:cx="327.75549"
     inkscape:cy="58.695368"
     inkscape:window-x="45"
     inkscape:window-y="193"
     inkscape:window-maximized="0"
     inkscape:current-layer="svg2" />
  <g
     id="g3"
     style="fill:none;stroke:#0268aa;stroke-width:12;stroke-linecap:square"
     transform="translate(105.25549,29.782597)">
    <path
       d="M 30,54 A 24,24 0 0 1 30,6 h 24 v 48"
       id="path5"
       inkscape:connector-curvature="0" />
    <path
       d="M 78,54 V 30 a 24,24 0 0 1 48,0 v 24"
       id="path7"
       inkscape:connector-curvature="0" />
    <path
       d="m 150,54 h 24 a 24,24 0 0 0 0,-48 h -24"
       id="path9"
       inkscape:connector-curvature="0" />
    <path
       d="M 270,54 A 18,18 0 0 0 252,36 m -30,0 h 33 a 15,15 0 0 0 0,-30 h -33"
       id="path11"
       inkscape:connector-curvature="0" />
    <circle
       r="24"
       cx="318"
       cy="30"
       id="circle13"
       sodipodi:cx="318"
       sodipodi:cy="30"
       sodipodi:rx="24"
       sodipodi:ry="24"
       d="m 342,30 c 0,13.254834 -10.74517,24 -24,24 -13.25483,0 -24,-10.745166 -24,-24 0,-13.254834 10.74517,-24 24,-24 13.25483,0 24,10.745166 24,24 z" />
    <path
       d="M 366,54 V 6"
       id="path15"
       inkscape:connector-curvature="0" />
    <path
       d="m 390,54 h 24 a 24,24 0 0 0 0,-48 h -24"
       id="path17"
       inkscape:connector-curvature="0" />
  </g>
  <g
     id="g3033"
     transform="translate(109.25549,27.782597)">
    <g
       id="g4"
       transform="matrix(0.33830441,0,0,0.33830441,-57.660063,-3.2030234)"
       style="fill:#a4c639">
      <use
         id="use6"
         xlink:href="#b"
         style="stroke:#ffffff;stroke-width:14.39999962"
         x="0"
         y="0"
         width="744.09448"
         height="1052.3622" />
      <use
         id="use8"
         transform="scale(-1,1)"
         xlink:href="#a"
         x="0"
         y="0"
         width="744.09448"
         height="1052.3622" />
      <g
         id="a"
         style="stroke:#ffffff;stroke-width:7.19999981">
        <rect
           id="rect11"
           x="14"
           y="-86"
           width="13"
           height="86"
           transform="matrix(0.87461971,0.48480962,-0.48480962,0.87461971,0,0)"
           rx="6.5" />
        <rect
           x="-143"
           y="41"
           width="48"
           height="133"
           rx="24"
           id="c" />
        <use
           id="use14"
           xlink:href="#c"
           x="85"
           y="97"
           width="744.09448"
           height="1052.3622" />
      </g>
      <g
         id="b">
        <ellipse
           id="ellipse17"
           ry="84"
           rx="91"
           cy="41"
           d="m 91,41 c 0,46.391919 -40.742088,84 -91,84 -50.257912,0 -91,-37.608081 -91,-84 0,-46.391919 40.742088,-84 91,-84 50.257912,0 91,37.608081 91,84 z"
           cx="0"
           sodipodi:cx="0"
           sodipodi:cy="41"
           sodipodi:rx="91"
           sodipodi:ry="84" />
        <rect
           id="rect19"
           x="-91"
           y="20"
           width="182"
           height="182"
           rx="22" />
      </g>
    </g>
    <g
       id="g21"
       transform="matrix(0.33830441,0,0,0.33830441,-57.660063,-3.2030234)"
       style="fill:#ffffff;stroke:#ffffff;stroke-width:7.19999981">
      <path
         id="path23"
         d="M -95,44.5 H 95"
         inkscape:connector-curvature="0" />
      <circle
         id="circle25"
         r="4"
         cx="-42"
         d="m -38,0 c 0,2.209139 -1.790861,4 -4,4 -2.209139,0 -4,-1.790861 -4,-4 0,-2.209139 1.790861,-4 4,-4 2.209139,0 4,1.790861 4,4 z"
         cy="0"
         sodipodi:cx="-42"
         sodipodi:cy="0"
         sodipodi:rx="4"
         sodipodi:ry="4" />
      <circle
         id="circle27"
         r="4"
         cx="42"
         d="m 46,0 c 0,2.209139 -1.790861,4 -4,4 -2.209139,0 -4,-1.790861 -4,-4 0,-2.209139 1.790861,-4 4,-4 2.209139,0 4,1.790861 4,4 z"
         cy="0"
         sodipodi:cx="42"
         sodipodi:cy="0"
         sodipodi:rx="4"
         sodipodi:ry="4" />
    </g>
  </g>
</svg>
