<?xml version="1.0" encoding="UTF-8" standalone="no"?>
<!-- Generator: Adobe Illustrator 16.0.0, SVG Export Plug-In . SVG Version: 6.00 Build 0)  -->

<svg
   xmlns:dc="http://purl.org/dc/elements/1.1/"
   xmlns:cc="http://creativecommons.org/ns#"
   xmlns:rdf="http://www.w3.org/1999/02/22-rdf-syntax-ns#"
   xmlns:svg="http://www.w3.org/2000/svg"
   xmlns="http://www.w3.org/2000/svg"
   xmlns:sodipodi="http://sodipodi.sourceforge.net/DTD/sodipodi-0.dtd"
   xmlns:inkscape="http://www.inkscape.org/namespaces/inkscape"
   version="1.1"
   id="Layer_1"
   x="0px"
   y="0px"
   width="216.8429"
   height="80.777443"
   viewBox="0 0 216.84289 80.777443"
   enable-background="new 0 0 125 80"
   xml:space="preserve"
   webdriver="true"
   inkscape:version="0.48.3.1 r9886"
   sodipodi:docname="Apple_iOS.svg"><metadata
   id="metadata13"><rdf:RDF><cc:Work
       rdf:about=""><dc:format>image/svg+xml</dc:format><dc:type
         rdf:resource="http://purl.org/dc/dcmitype/StillImage" /></cc:Work></rdf:RDF></metadata><defs
   id="defs11" /><sodipodi:namedview
   pagecolor="#ffffff"
   bordercolor="#666666"
   borderopacity="1"
   objecttolerance="10"
   gridtolerance="10"
   guidetolerance="10"
   inkscape:pageopacity="0"
   inkscape:pageshadow="2"
   inkscape:window-width="1280"
   inkscape:window-height="779"
   id="namedview9"
   showgrid="false"
   fit-margin-top="0"
   fit-margin-left="5"
   fit-margin-right="5"
   fit-margin-bottom="0"
   inkscape:zoom="2.624"
   inkscape:cx="67.224"
   inkscape:cy="40.754582"
   inkscape:window-x="0"
   inkscape:window-y="0"
   inkscape:window-maximized="1"
   inkscape:current-layer="Layer_1" />
<path
   d="m 49.345,6.9878613 c 0,1.368 -0.833,2.38 -2.262,2.38 -1.19,0 -2.083,-1.012 -2.083,-2.38 0,-1.31 0.952,-2.381 2.202,-2.381 1.31,0 2.143,1.071 2.143,2.381 z M 46.051,78.522861 v -54.72 h 2.243 v 54.72 h -2.243 z"
   id="path3"
   inkscape:connector-curvature="0" />
<path
   d="m 122.898,39.534861 c 0,27.588 -15.315,40.128 -32.079,40.128 -17.125,0 -30.993,-13.565 -30.993,-38.987 0,-26.105 14.351,-40.12799971 32.199,-40.12799971 17.486,-10e-4 30.873,13.79299971 30.873,38.98699971 z m -60.799,0.57 c 0,20.918 10.138,37.168 28.826,37.168 18.818,0 29.611,-16.75 29.611,-37.406 0,-19.155 -8.648,-36.6359997 -28.382,-36.6359997 -19.734,0 -30.055,16.4589997 -30.055,36.8739997 z"
   id="path5"
   inkscape:connector-curvature="0" />
<path
   d="m 131.13,72.593861 c 3.763,2.508 10.258,4.93 15.844,4.93 10.602,0 20.031,-7.417 20.031,-18.334 0,-10.131 -6.281,-15.417 -16.945,-19.958 -9.544,-4.064 -18.125,-8.475 -18.125,-19.305 0,-11.2849997 8.891,-19.26599971 20.975,-19.26599971 6.498,0 11.4,1.82400001 13.68,3.42000001 l -0.907,1.968 c -1.938,-1.367 -7.175,-3.109 -12.874,-3.109 -12.771,0 -18.334,9.6499997 -18.334,16.7539997 0,9.812 7.606,13.093 17.41,17.767 11.4,5.586 17.441,10.51 17.441,21.227 0,11.514 -8.207,20.861 -22.799,20.861 -6.043,0 -12.996,-2.052 -16.416,-4.674 l 1.019,-2.281 z"
   id="path7"
   inkscape:connector-curvature="0" />
</svg>